<svg xmlns="http://www.w3.org/2000/svg" viewBox="0 0 600 600" role="img" aria-label="Jamones y charcutería">
  <defs>
    <radialGradient id="bgC" cx="40%" cy="32%" r="85%">
      <stop offset="0%" stop-color="#fbeee9"/>
      <stop offset="55%" stop-color="#f0cfc6"/>
      <stop offset="100%" stop-color="#c98a82"/>
    </radialGradient>
    <linearGradient id="salamiC" x1="0" y1="0" x2="1" y2="1">
      <stop offset="0%" stop-color="#c75d5d"/>
      <stop offset="100%" stop-color="#9c3b41"/>
    </linearGradient>
  </defs>
  <rect width="600" height="600" fill="url(#bgC)"/>
  <g opacity="0.4" fill="#b76a64">
    <circle cx="95" cy="110" r="5"/><circle cx="505" cy="125" r="6"/><circle cx="500" cy="485" r="5"/><circle cx="100" cy="490" r="6"/>
  </g>
  <!-- board -->
  <g transform="translate(300 330)">
    <ellipse cx="0" cy="92" rx="210" ry="30" fill="#7a4a2c" opacity="0.25"/>
    <rect x="-215" y="40" width="430" height="64" rx="32" fill="#8a5a34" stroke="#623b1f" stroke-width="6"/>
    <!-- salami slices -->
    <g stroke="#7e2f34" stroke-width="6">
      <circle cx="-120" cy="-10" r="64" fill="url(#salamiC)"/>
      <circle cx="-10" cy="-34" r="64" fill="url(#salamiC)"/>
      <circle cx="100" cy="-12" r="64" fill="url(#salamiC)"/>
    </g>
    <g fill="#f3ddd0" opacity="0.9">
      <circle cx="-138" cy="-26" r="8"/><circle cx="-104" cy="6" r="7"/><circle cx="-120" cy="-2" r="5"/>
      <circle cx="-26" cy="-50" r="8"/><circle cx="6" cy="-20" r="7"/><circle cx="-2" cy="-44" r="5"/>
      <circle cx="84" cy="-30" r="8"/><circle cx="116" cy="2" r="7"/><circle cx="100" cy="-6" r="5"/>
    </g>
  </g>
</svg>
