<svg xmlns="http://www.w3.org/2000/svg" viewBox="0 0 600 600" role="img" aria-label="Quesos artesanales">
  <defs>
    <radialGradient id="bgQ" cx="38%" cy="32%" r="85%">
      <stop offset="0%" stop-color="#fbf3df"/>
      <stop offset="55%" stop-color="#f3e3b6"/>
      <stop offset="100%" stop-color="#e7c879"/>
    </radialGradient>
    <linearGradient id="cheeseQ" x1="0" y1="0" x2="0" y2="1">
      <stop offset="0%" stop-color="#f4cf63"/>
      <stop offset="100%" stop-color="#e3a92f"/>
    </linearGradient>
  </defs>
  <rect width="600" height="600" fill="url(#bgQ)"/>
  <g opacity="0.5" fill="#d9b257">
    <circle cx="80" cy="90" r="5"/><circle cx="520" cy="120" r="7"/>
    <circle cx="500" cy="470" r="5"/><circle cx="110" cy="500" r="6"/>
  </g>
  <!-- cheese wedge -->
  <g transform="translate(300 312) rotate(-8)">
    <path d="M-170 70 L150 -78 L160 -58 L-150 92 Z" fill="#caa04a"/>
    <path d="M-170 70 L150 -78 L160 30 L-150 92 Z" fill="url(#cheeseQ)" stroke="#9a6b2f" stroke-width="6" stroke-linejoin="round"/>
    <path d="M150 -78 L160 -58 L160 30 L150 50 Z" fill="#e6b84e" stroke="#9a6b2f" stroke-width="6" stroke-linejoin="round"/>
    <path d="M-170 70 L-150 92 L160 30 L150 50 Z" fill="#d8a63e" stroke="#9a6b2f" stroke-width="6" stroke-linejoin="round"/>
    <g fill="#f7e6b0" stroke="#b9863a" stroke-width="3">
      <ellipse cx="-60" cy="40" rx="20" ry="16"/>
      <ellipse cx="30" cy="6" rx="15" ry="12"/>
      <ellipse cx="95" cy="-18" rx="11" ry="9"/>
      <ellipse cx="-110" cy="64" rx="12" ry="10"/>
      <ellipse cx="-20" cy="58" rx="9" ry="8"/>
    </g>
  </g>
</svg>
